# xmcd
#
# Track frame offsets:
#	150
#	12262
#	24735
#	39432
#	53920
#	70402
#	82047
#	94865
#	108860
#	118735
#	134935
#	146085
#	157725
#	170120
#
# Disc length: 2439
#
# Revision: 1
# Processed by: cddbd v1.5.1PL0 Copyright (c) Steve Scherf et al.
# Submitted via: CDex 1.50beta8
# Normalized: r0:TDELIM( - )
#
DISCID=c709850e
DTITLE=Various Blues - Livin´ The Blues Cd 2
DYEAR=1995
DGENRE=Blues
TTITLE0=John Lee Hooker - I´m in the Mood
TTITLE1=Howlin´ Wolf - Spoonful
TTITLE2=Muddy Waters - Baby please don´t go
TTITLE3=John Mayall - John Lee Boogie
TTITLE4=B.B. King - Outside Help
TTITLE5=Little Walter - As long as i have You
TTITLE6=Sonny Boy Williamson - Keep it to Yourself
TTITLE7=Little Walter - Blues with a Feeling
TTITLE8=John Lee Hooker - Dusty Road
TTITLE9=B.B. King - It´s my own fault, Baby
TTITLE10=Canned Heat - Can´t hold on
TTITLE11=Johnny Winter - Avocado Green
TTITLE12=Elmore Winter - The Sky is crying
TTITLE13=Big Joe Williams - Don´t want no big fat woman
EXTD=YEAR: 1995
EXTT0=
EXTT1=
EXTT2=
EXTT3=
EXTT4=
EXTT5=
EXTT6=
EXTT7=
EXTT8=
EXTT9=
EXTT10=
EXTT11=
EXTT12=
EXTT13=
PLAYORDER=
